<svg id="Layer_1" data-name="Layer 1" xmlns="http://www.w3.org/2000/svg" viewBox="0 0 282.25 282.25"><defs><style>.cls-1{fill:#effff1;}.cls-1,.cls-2,.cls-3,.cls-4,.cls-5{stroke:#231f20;stroke-miterlimit:10;}.cls-2{fill:#ffd4e2;}.cls-2,.cls-3{stroke-width:5px;}.cls-3,.cls-4,.cls-5{fill:none;}.cls-4{stroke-width:8px;}.cls-5{stroke-width:15px;}</style></defs><circle class="cls-1" cx="141.13" cy="141.13" r="140.63"/><path class="cls-2" d="M157.86,217.32l-33.18,23.23-23.23-33.18c-6.81-11-3.41-24.19,4.33-29,8.6-5.29,23.88-1,29.3,12.68,8.25-8.87,21-9,27.16-3.15C169,194.4,168.83,209.16,157.86,217.32Z" transform="translate(-2.26 0.5)"/><path class="cls-3" d="M59.21,139.41A162.15,162.15,0,0,1,205.4,167.69" transform="translate(-2.26 0.5)"/><path class="cls-4" d="M51.64,106.73a213.38,213.38,0,0,1,183.49,36.7" transform="translate(-2.26 0.5)"/><path class="cls-5" d="M46.38,70.62A274.89,274.89,0,0,1,261,113.13" transform="translate(-2.26 0.5)"/></svg>